<?xml version="1.0" encoding="utf-8"?>
<!-- Generator: Adobe Illustrator 27.3.1, SVG Export Plug-In . SVG Version: 6.00 Build 0)  -->
<svg version="1.1" id="Layer_1" xmlns="http://www.w3.org/2000/svg" xmlns:xlink="http://www.w3.org/1999/xlink" x="0px" y="0px"
	 viewBox="0 0 14.5 16.5" style="enable-background:new 0 0 14.5 16.5;" xml:space="preserve">
<style type="text/css">
	.st0{fill:#414142;}
</style>
<g>
	<path class="st0" d="M7.5,11.3l2.7-1.5V6.5L7.6,5l0-0.8l3.2,1.9v4L7.5,12V11.3z"/>
	<path class="st0" d="M4.3,14.5l-4-2.3v-8l6.9-4l6.9,4v8l-6.9,4L4.3,14.5z M1,4.6v7.2l3.2,1.9l3,1.8l6.3-3.6V4.6L7.2,1L1,4.6z"/>
	<path class="st0" d="M4.4,12.3L2.2,11l0.6-0.4l4.5,2.6l4.6-2.6l0-5.1l0.6-0.4l0.1,5.9l-5.2,3L4.4,12.3z"/>
	<path class="st0" d="M8.4,8.8l0.1-1l-1-0.7L6.6,7.6L5.9,7.2l1.5-0.8l1.7,1.1L9,9.2L8.4,8.8z"/>
</g>
</svg>
