<svg xmlns="http://www.w3.org/2000/svg" xmlns:xlink="http://www.w3.org/1999/xlink" id="Layer_1" x="0px" y="0px" width="449px" height="228px" viewBox="0 0 449 228" xml:space="preserve"><path fill="#ECA42F" d="M91.546,8.201L16.055,51.786C8.999,55.858,4.653,63.387,4.653,71.535v87.168 c0,8.148,4.346,15.676,11.402,19.751l75.492,43.586c7.057,4.071,15.75,4.071,22.805,0l75.491-43.586 c7.054-4.075,11.401-11.603,11.401-19.751V71.535c0-8.148-4.348-15.677-11.401-19.75L114.351,8.201 C107.296,4.125,98.604,4.125,91.546,8.201"/><g>	<g>		<path fill="#58595B" d="M236.546,66.869v8.806h13.441v-8.806c0-1.259,0.282-2.203,0.85-2.832c0.565-0.629,1.31-0.944,2.232-0.944   c0.937,0,1.695,0.312,2.275,0.933c0.579,0.623,0.87,1.57,0.87,2.842v24.218c0,1.272-0.293,2.223-0.881,2.852   s-1.343,0.944-2.265,0.944c-0.937,0-1.685-0.319-2.243-0.955c-0.56-0.636-0.839-1.583-0.839-2.841V80.749h-13.441v10.338   c0,1.272-0.293,2.223-0.881,2.852c-0.586,0.629-1.341,0.944-2.264,0.944c-0.937,0-1.685-0.319-2.244-0.955   c-0.559-0.636-0.838-1.583-0.838-2.841V66.869c0-1.259,0.275-2.203,0.828-2.832c0.552-0.629,1.303-0.944,2.254-0.944   c0.937,0,1.694,0.312,2.274,0.933C236.257,64.649,236.546,65.597,236.546,66.869z"/>		<path fill="#58595B" d="M265.399,68.944c-0.798,0-1.479-0.245-2.045-0.734c-0.566-0.489-0.85-1.181-0.85-2.075   c0-0.811,0.291-1.478,0.871-2.002c0.579-0.525,1.254-0.787,2.023-0.787c0.74,0,1.397,0.238,1.971,0.712   c0.573,0.476,0.859,1.168,0.859,2.077c0,0.881-0.28,1.569-0.839,2.065C266.831,68.696,266.167,68.944,265.399,68.944z    M268.229,74.857v16.544c0,1.146-0.273,2.012-0.818,2.6c-0.545,0.586-1.237,0.881-2.075,0.881s-1.521-0.302-2.045-0.902   c-0.523-0.601-0.786-1.46-0.786-2.578V75.025c0-1.132,0.263-1.984,0.786-2.558c0.524-0.573,1.207-0.86,2.045-0.86   s1.53,0.287,2.075,0.86S268.229,73.837,268.229,74.857z"/>		<path fill="#58595B" d="M278.189,75.171l4.635,13l4.99-13.566c0.391-1.09,0.775-1.862,1.153-2.316   c0.378-0.454,0.95-0.682,1.719-0.682c0.727,0,1.346,0.245,1.856,0.734c0.51,0.489,0.765,1.055,0.765,1.699   c0,0.25-0.046,0.545-0.137,0.88s-0.196,0.649-0.313,0.944c-0.12,0.293-0.256,0.629-0.409,1.005l-5.494,13.629   c-0.154,0.393-0.353,0.888-0.598,1.489c-0.244,0.601-0.518,1.116-0.817,1.541c-0.301,0.426-0.672,0.758-1.111,0.996   c-0.44,0.239-0.976,0.357-1.604,0.357c-0.813,0-1.458-0.186-1.939-0.556c-0.482-0.371-0.839-0.775-1.07-1.216   c-0.23-0.439-0.618-1.311-1.163-2.611L273.2,77.017c-0.126-0.334-0.256-0.67-0.39-1.006c-0.132-0.335-0.244-0.678-0.335-1.027   c-0.091-0.35-0.136-0.65-0.136-0.902c0-0.392,0.118-0.779,0.355-1.163c0.238-0.384,0.566-0.699,0.986-0.944   s0.874-0.367,1.363-0.367c0.95,0,1.604,0.273,1.96,0.818C277.361,72.97,277.756,73.886,278.189,75.171z"/>		<path fill="#58595B" d="M312.829,84.65h-11.197c0.014,1.3,0.275,2.446,0.787,3.438c0.51,0.992,1.187,1.741,2.032,2.244   c0.846,0.502,1.78,0.755,2.8,0.755c0.685,0,1.312-0.08,1.877-0.241s1.114-0.412,1.646-0.755c0.53-0.343,1.02-0.71,1.467-1.101   c0.447-0.392,1.027-0.922,1.741-1.593c0.293-0.252,0.712-0.378,1.258-0.378c0.587,0,1.063,0.161,1.426,0.482   c0.363,0.323,0.545,0.777,0.545,1.363c0,0.517-0.202,1.122-0.608,1.813c-0.404,0.693-1.017,1.357-1.834,1.993   c-0.817,0.636-1.845,1.163-3.082,1.582c-1.238,0.42-2.66,0.63-4.267,0.63c-3.678,0-6.536-1.049-8.576-3.145   c-2.042-2.097-3.062-4.942-3.062-8.535c0-1.691,0.251-3.26,0.755-4.707c0.502-1.448,1.236-2.687,2.201-3.722   c0.964-1.035,2.152-1.828,3.564-2.38c1.412-0.553,2.978-0.829,4.696-0.829c2.236,0,4.155,0.473,5.756,1.417s2.8,2.163,3.597,3.659   c0.796,1.496,1.195,3.019,1.195,4.571c0,1.44-0.412,2.374-1.237,2.8C315.484,84.437,314.324,84.65,312.829,84.65z M301.632,81.399   h10.379c-0.14-1.957-0.667-3.421-1.583-4.393s-2.121-1.458-3.616-1.458c-1.426,0-2.598,0.493-3.513,1.478   C302.384,78.014,301.827,79.47,301.632,81.399z"/>		<path fill="#58595B" d="M248.646,105.637h-12.267v7.864h10.253c0.951,0,1.659,0.213,2.129,0.64   c0.467,0.427,0.702,0.996,0.702,1.708c0,0.713-0.237,1.279-0.714,1.698c-0.475,0.419-1.181,0.629-2.117,0.629h-10.253v10.128   c0,1.287-0.291,2.24-0.87,2.862c-0.58,0.623-1.325,0.934-2.233,0.934c-0.922,0-1.675-0.315-2.254-0.944   c-0.58-0.629-0.871-1.58-0.871-2.852v-23.652c0-0.894,0.134-1.626,0.398-2.192c0.266-0.565,0.683-0.978,1.248-1.237   c0.565-0.258,1.289-0.388,2.17-0.388h14.679c0.992,0,1.729,0.221,2.212,0.661c0.482,0.439,0.724,1.016,0.724,1.73   c0,0.727-0.241,1.311-0.724,1.75C250.375,105.417,249.638,105.637,248.646,105.637z"/>		<path fill="#58595B" d="M270.684,128.87v-0.733c-0.686,0.866-1.405,1.593-2.16,2.181c-0.755,0.586-1.58,1.023-2.474,1.31   c-0.896,0.287-1.916,0.43-3.062,0.43c-1.385,0-2.625-0.287-3.722-0.86c-1.098-0.573-1.947-1.363-2.548-2.368   c-0.714-1.216-1.07-2.963-1.07-5.242v-11.345c0-1.146,0.259-2.002,0.775-2.568c0.518-0.565,1.203-0.849,2.055-0.849   c0.868,0,1.566,0.287,2.098,0.86c0.531,0.573,0.797,1.426,0.797,2.557v9.164c0,1.328,0.111,2.442,0.336,3.344   c0.223,0.902,0.625,1.607,1.205,2.118c0.58,0.511,1.366,0.766,2.359,0.766c0.964,0,1.872-0.286,2.726-0.859   c0.853-0.573,1.475-1.321,1.866-2.244c0.321-0.81,0.482-2.586,0.482-5.327v-6.961c0-1.131,0.266-1.984,0.796-2.557   c0.532-0.573,1.224-0.86,2.077-0.86c0.853,0,1.537,0.284,2.055,0.849c0.517,0.566,0.775,1.422,0.775,2.568v16.587   c0,1.09-0.249,1.908-0.744,2.453c-0.497,0.545-1.137,0.818-1.919,0.818c-0.783,0-1.43-0.284-1.939-0.85   C270.938,130.683,270.684,129.891,270.684,128.87z"/>		<path fill="#58595B" d="M287.436,123.837v4.782c0,1.16-0.272,2.031-0.817,2.61c-0.545,0.58-1.237,0.871-2.076,0.871   c-0.825,0-1.503-0.294-2.034-0.881c-0.531-0.588-0.796-1.454-0.796-2.6v-15.936c0-2.572,0.929-3.858,2.789-3.858   c0.949,0,1.635,0.3,2.055,0.901c0.419,0.602,0.649,1.489,0.691,2.663c0.685-1.174,1.387-2.061,2.106-2.663   c0.721-0.601,1.682-0.901,2.884-0.901s2.369,0.3,3.502,0.901c1.132,0.602,1.699,1.398,1.699,2.39c0,0.7-0.241,1.276-0.725,1.73   c-0.482,0.455-1.003,0.682-1.562,0.682c-0.21,0-0.717-0.129-1.521-0.388c-0.804-0.259-1.514-0.389-2.128-0.389   c-0.839,0-1.523,0.22-2.056,0.661c-0.53,0.44-0.943,1.094-1.237,1.96c-0.293,0.866-0.496,1.897-0.607,3.093   C287.492,120.661,287.436,122.118,287.436,123.837z"/>		<path fill="#58595B" d="M305.763,111.991v0.691c1.005-1.328,2.106-2.303,3.302-2.925c1.195-0.622,2.568-0.933,4.121-0.933   c1.509,0,2.857,0.328,4.046,0.986c1.188,0.656,2.076,1.585,2.663,2.788c0.378,0.7,0.621,1.455,0.734,2.265   c0.111,0.811,0.167,1.845,0.167,3.103v10.652c0,1.146-0.262,2.012-0.786,2.6c-0.523,0.586-1.206,0.881-2.044,0.881   c-0.853,0-1.545-0.302-2.077-0.903c-0.53-0.601-0.796-1.46-0.796-2.578v-9.541c0-1.887-0.263-3.33-0.786-4.33   c-0.524-1-1.569-1.5-3.135-1.5c-1.021,0-1.951,0.304-2.789,0.913c-0.839,0.608-1.454,1.442-1.845,2.505   c-0.28,0.853-0.42,2.447-0.42,4.781v7.172c0,1.16-0.269,2.031-0.807,2.61c-0.539,0.58-1.234,0.871-2.087,0.871   c-0.824,0-1.503-0.302-2.033-0.903c-0.532-0.601-0.797-1.46-0.797-2.578v-16.544c0-1.09,0.237-1.904,0.712-2.444   c0.477-0.538,1.126-0.807,1.95-0.807c0.503,0,0.957,0.119,1.363,0.356c0.406,0.239,0.73,0.595,0.976,1.07   C305.64,110.725,305.763,111.305,305.763,111.991z"/>		<path fill="#58595B" d="M329.394,106.162c-0.797,0-1.478-0.245-2.045-0.734c-0.565-0.49-0.849-1.181-0.849-2.075   c0-0.811,0.29-1.478,0.87-2.003c0.579-0.524,1.254-0.786,2.023-0.786c0.74,0,1.398,0.237,1.972,0.712   c0.572,0.476,0.858,1.168,0.858,2.077c0,0.881-0.279,1.569-0.838,2.065C330.826,105.913,330.162,106.162,329.394,106.162z    M332.224,112.075v16.544c0,1.146-0.272,2.012-0.817,2.6c-0.546,0.586-1.237,0.881-2.075,0.881c-0.839,0-1.521-0.302-2.045-0.903   c-0.523-0.601-0.786-1.46-0.786-2.578v-16.377c0-1.131,0.263-1.984,0.786-2.557c0.524-0.573,1.206-0.86,2.045-0.86   c0.838,0,1.529,0.287,2.075,0.86C331.951,110.257,332.224,111.055,332.224,112.075z"/>		<path fill="#58595B" d="M338.452,109.327h0.629v-3.438c0-0.923,0.024-1.646,0.073-2.169c0.049-0.525,0.186-0.976,0.409-1.354   c0.224-0.391,0.545-0.708,0.964-0.954c0.42-0.245,0.888-0.367,1.405-0.367c0.727,0,1.384,0.272,1.972,0.817   c0.391,0.364,0.639,0.807,0.743,1.332c0.105,0.525,0.157,1.269,0.157,2.233v3.9h2.098c0.811,0,1.43,0.192,1.855,0.577   c0.427,0.385,0.64,0.878,0.64,1.479c0,0.768-0.304,1.307-0.912,1.614c-0.607,0.308-1.478,0.461-2.61,0.461h-1.07v10.527   c0,0.894,0.032,1.582,0.095,2.064c0.063,0.482,0.231,0.875,0.504,1.175c0.272,0.3,0.716,0.451,1.332,0.451   c0.335,0,0.788-0.06,1.362-0.178c0.573-0.119,1.021-0.178,1.342-0.178c0.461,0,0.877,0.186,1.247,0.555   c0.371,0.371,0.557,0.828,0.557,1.374c0,0.922-0.504,1.628-1.51,2.118c-1.007,0.489-2.453,0.734-4.341,0.734   c-1.789,0-3.145-0.302-4.068-0.903c-0.922-0.601-1.527-1.432-1.813-2.495c-0.287-1.063-0.43-2.481-0.43-4.257v-10.987h-0.755   c-0.825,0-1.454-0.195-1.888-0.587c-0.433-0.39-0.649-0.887-0.649-1.488c0-0.601,0.227-1.094,0.681-1.479   C336.925,109.52,337.585,109.327,338.452,109.327z"/>		<path fill="#58595B" d="M368.206,128.87v-0.733c-0.686,0.866-1.405,1.593-2.16,2.181c-0.755,0.586-1.579,1.023-2.474,1.31   c-0.896,0.287-1.915,0.43-3.062,0.43c-1.385,0-2.625-0.287-3.722-0.86c-1.098-0.573-1.946-1.363-2.548-2.368   c-0.713-1.216-1.069-2.963-1.069-5.242v-11.345c0-1.146,0.258-2.002,0.775-2.568c0.518-0.565,1.203-0.849,2.055-0.849   c0.867,0,1.566,0.287,2.097,0.86c0.532,0.573,0.798,1.426,0.798,2.557v9.164c0,1.328,0.111,2.442,0.335,3.344   c0.223,0.902,0.625,1.607,1.206,2.118c0.58,0.511,1.366,0.766,2.358,0.766c0.964,0,1.873-0.286,2.726-0.859   c0.854-0.573,1.475-1.321,1.867-2.244c0.321-0.81,0.482-2.586,0.482-5.327v-6.961c0-1.131,0.265-1.984,0.796-2.557   c0.531-0.573,1.224-0.86,2.076-0.86s1.537,0.284,2.055,0.849c0.518,0.566,0.775,1.422,0.775,2.568v16.587   c0,1.09-0.248,1.908-0.744,2.453s-1.136,0.818-1.919,0.818c-0.782,0-1.43-0.284-1.939-0.85   C368.461,130.683,368.206,129.891,368.206,128.87z"/>		<path fill="#58595B" d="M384.96,123.837v4.782c0,1.16-0.272,2.031-0.817,2.61c-0.545,0.58-1.237,0.871-2.077,0.871   c-0.824,0-1.502-0.294-2.034-0.881c-0.53-0.588-0.796-1.454-0.796-2.6v-15.936c0-2.572,0.93-3.858,2.789-3.858   c0.95,0,1.636,0.3,2.055,0.901c0.419,0.602,0.649,1.489,0.692,2.663c0.684-1.174,1.387-2.061,2.106-2.663   c0.721-0.601,1.682-0.901,2.884-0.901c1.201,0,2.369,0.3,3.502,0.901c1.132,0.602,1.698,1.398,1.698,2.39   c0,0.7-0.241,1.276-0.725,1.73c-0.481,0.455-1.003,0.682-1.562,0.682c-0.209,0-0.716-0.129-1.521-0.388   c-0.803-0.259-1.513-0.389-2.127-0.389c-0.84,0-1.524,0.22-2.056,0.661c-0.531,0.44-0.944,1.094-1.237,1.96   s-0.497,1.897-0.608,3.093C385.016,120.661,384.96,122.118,384.96,123.837z"/>		<path fill="#58595B" d="M412.994,121.867h-11.197c0.014,1.3,0.275,2.446,0.787,3.438c0.51,0.993,1.188,1.741,2.032,2.244   c0.846,0.502,1.78,0.754,2.8,0.754c0.685,0,1.312-0.08,1.877-0.241c0.565-0.161,1.114-0.412,1.646-0.754   c0.53-0.343,1.02-0.71,1.467-1.102c0.447-0.391,1.027-0.922,1.741-1.593c0.293-0.252,0.712-0.378,1.258-0.378   c0.587,0,1.063,0.162,1.426,0.482c0.363,0.322,0.545,0.776,0.545,1.363c0,0.518-0.202,1.122-0.608,1.814   c-0.404,0.693-1.017,1.356-1.834,1.993s-1.845,1.163-3.082,1.583c-1.238,0.42-2.66,0.63-4.267,0.63   c-3.677,0-6.536-1.049-8.576-3.145c-2.042-2.097-3.062-4.942-3.062-8.535c0-1.691,0.251-3.26,0.755-4.707   c0.503-1.448,1.236-2.687,2.201-3.722c0.964-1.035,2.152-1.828,3.564-2.381c1.412-0.552,2.978-0.829,4.696-0.829   c2.236,0,4.155,0.473,5.756,1.417c1.601,0.943,2.8,2.162,3.598,3.659c0.796,1.496,1.194,3.019,1.194,4.571   c0,1.44-0.412,2.374-1.237,2.8S414.489,121.867,412.994,121.867z M401.797,118.617h10.379c-0.14-1.957-0.667-3.421-1.583-4.393   s-2.121-1.457-3.616-1.457c-1.426,0-2.598,0.493-3.512,1.478C402.549,115.23,401.992,116.687,401.797,118.617z"/>		<path fill="#58595B" d="M253.636,159.566c0,1.858-0.479,3.529-1.437,5.011s-2.359,2.643-4.205,3.48   c-1.845,0.84-4.032,1.259-6.563,1.259c-3.033,0-5.535-0.573-7.506-1.721c-1.398-0.823-2.535-1.925-3.408-3.302   s-1.31-2.715-1.31-4.016c0-0.754,0.262-1.401,0.786-1.939c0.523-0.537,1.191-0.807,2.001-0.807c0.658,0,1.213,0.21,1.668,0.629   c0.454,0.419,0.842,1.042,1.164,1.865c0.391,0.979,0.813,1.797,1.269,2.454c0.454,0.657,1.094,1.199,1.919,1.625   c0.823,0.427,1.908,0.641,3.25,0.641c1.846,0,3.344-0.431,4.497-1.291c1.153-0.858,1.73-1.932,1.73-3.219   c0-1.021-0.312-1.848-0.934-2.484c-0.622-0.635-1.426-1.122-2.412-1.457c-0.984-0.335-2.303-0.692-3.951-1.069   c-2.209-0.518-4.058-1.122-5.547-1.813c-1.488-0.692-2.67-1.636-3.543-2.832c-0.874-1.194-1.312-2.68-1.312-4.456   c0-1.691,0.462-3.193,1.384-4.508c0.923-1.313,2.259-2.323,4.005-3.03c1.747-0.705,3.804-1.059,6.166-1.059   c1.886,0,3.518,0.234,4.896,0.703c1.376,0.469,2.52,1.09,3.429,1.866c0.908,0.776,1.572,1.59,1.991,2.443s0.629,1.684,0.629,2.495   c0,0.741-0.262,1.409-0.786,2.002c-0.523,0.595-1.178,0.892-1.96,0.892c-0.713,0-1.256-0.178-1.625-0.536   c-0.371-0.356-0.772-0.938-1.205-1.75c-0.56-1.159-1.231-2.065-2.014-2.715c-0.783-0.65-2.042-0.975-3.773-0.975   c-1.608,0-2.905,0.354-3.891,1.059c-0.985,0.707-1.478,1.556-1.478,2.548c0,0.616,0.167,1.146,0.502,1.593   c0.336,0.448,0.798,0.832,1.384,1.153c0.588,0.322,1.182,0.574,1.783,0.755c0.602,0.182,1.594,0.448,2.977,0.797   c1.734,0.406,3.303,0.853,4.708,1.342c1.405,0.49,2.6,1.083,3.586,1.782c0.985,0.699,1.753,1.583,2.306,2.652   C253.359,156.704,253.636,158.015,253.636,159.566z"/>		<path fill="#58595B" d="M264.119,141.009v8.493c0.727-0.838,1.436-1.502,2.128-1.992c0.691-0.49,1.457-0.856,2.297-1.102   c0.838-0.245,1.739-0.367,2.704-0.367c1.454,0,2.744,0.308,3.868,0.923c1.126,0.614,2.01,1.51,2.653,2.684   c0.404,0.685,0.677,1.45,0.817,2.296c0.14,0.845,0.21,1.821,0.21,2.925v10.967c0,1.146-0.262,2.013-0.786,2.6   s-1.22,0.881-2.086,0.881c-1.888,0-2.832-1.16-2.832-3.48v-9.667c0-1.831-0.272-3.239-0.817-4.225   c-0.545-0.985-1.58-1.478-3.103-1.478c-1.021,0-1.939,0.291-2.758,0.87c-0.817,0.581-1.43,1.374-1.835,2.381   c-0.308,0.853-0.461,2.369-0.461,4.55v7.569c0,1.132-0.255,1.995-0.765,2.589c-0.512,0.594-1.221,0.892-2.129,0.892   c-1.888,0-2.83-1.16-2.83-3.48v-24.827c0-1.159,0.247-2.03,0.744-2.611c0.495-0.579,1.191-0.87,2.086-0.87   c0.908,0,1.617,0.293,2.129,0.88C263.864,138.997,264.119,139.863,264.119,141.009z"/>		<path fill="#58595B" d="M305.889,157.679c0,1.706-0.266,3.278-0.798,4.718c-0.53,1.44-1.3,2.678-2.307,3.712   c-1.005,1.035-2.208,1.827-3.606,2.38c-1.396,0.552-2.971,0.828-4.718,0.828c-1.733,0-3.291-0.279-4.675-0.84   c-1.385-0.558-2.583-1.358-3.597-2.399c-1.013-1.042-1.782-2.271-2.307-3.691c-0.523-1.418-0.786-2.987-0.786-4.707   c0-1.733,0.265-3.319,0.797-4.76c0.53-1.439,1.293-2.67,2.286-3.69c0.992-1.021,2.193-1.807,3.606-2.359   c1.411-0.553,2.97-0.829,4.675-0.829c1.734,0,3.307,0.28,4.718,0.838c1.413,0.56,2.622,1.356,3.629,2.39   c1.005,1.036,1.771,2.265,2.295,3.691C305.627,154.388,305.889,155.96,305.889,157.679z M300.144,157.679   c0-2.334-0.514-4.151-1.542-5.452c-1.027-1.3-2.407-1.95-4.142-1.95c-1.118,0-2.104,0.291-2.956,0.871   c-0.853,0.579-1.509,1.436-1.971,2.568c-0.462,1.131-0.691,2.453-0.691,3.962c0,1.496,0.227,2.803,0.681,3.921   c0.454,1.119,1.104,1.975,1.95,2.569c0.846,0.594,1.842,0.891,2.987,0.891c1.734,0,3.114-0.653,4.142-1.96   C299.63,161.792,300.144,159.985,300.144,157.679z"/>		<path fill="#58595B" d="M313.962,149.605l3.731,12.791l3.396-11.888c0.363-1.245,0.633-2.094,0.809-2.548   c0.174-0.455,0.503-0.888,0.984-1.3c0.482-0.413,1.143-0.619,1.982-0.619c0.852,0,1.521,0.206,2.002,0.619   c0.482,0.412,0.82,0.859,1.017,1.341c0.196,0.482,0.47,1.318,0.818,2.507l3.396,11.888l3.774-12.791   c0.252-0.922,0.454-1.589,0.608-2.001c0.153-0.413,0.411-0.776,0.776-1.09c0.363-0.315,0.887-0.472,1.572-0.472   c0.685,0,1.278,0.237,1.782,0.713c0.503,0.475,0.755,1.035,0.755,1.677c0,0.587-0.217,1.476-0.65,2.663l-4.676,13.714   c-0.405,1.159-0.721,1.999-0.943,2.515c-0.225,0.518-0.577,0.979-1.059,1.385c-0.482,0.405-1.143,0.608-1.982,0.608   c-0.866,0-1.549-0.217-2.044-0.65c-0.497-0.433-0.863-0.965-1.102-1.593c-0.237-0.629-0.496-1.447-0.775-2.454l-3.271-11.155   l-3.167,11.155c-0.419,1.553-0.873,2.723-1.363,3.513c-0.489,0.79-1.348,1.185-2.579,1.185c-0.629,0-1.163-0.122-1.604-0.367   c-0.44-0.244-0.807-0.594-1.101-1.049c-0.294-0.453-0.552-0.992-0.776-1.614c-0.223-0.622-0.398-1.114-0.523-1.478l-4.634-13.714   c-0.462-1.286-0.693-2.174-0.693-2.663c0-0.614,0.245-1.167,0.734-1.656s1.091-0.734,1.804-0.734c0.95,0,1.594,0.269,1.929,0.807   C313.228,147.387,313.584,148.306,313.962,149.605z"/>	</g>	<g>		<g>			<path d="M237.079,195.673c-0.594,0.297-1.782,0.594-3.305,0.594c-3.528,0-6.184-2.228-6.184-6.332    c0-3.918,2.655-6.574,6.536-6.574c1.561,0,2.544,0.335,2.972,0.558l-0.391,1.318c-0.612-0.297-1.485-0.52-2.525-0.52    c-2.935,0-4.884,1.875-4.884,5.162c0,3.064,1.764,5.032,4.81,5.032c0.983,0,1.987-0.203,2.638-0.52L237.079,195.673z"/>			<path d="M250.52,189.693c0,4.308-2.618,6.593-5.813,6.593c-3.306,0-5.627-2.563-5.627-6.352c0-3.974,2.47-6.574,5.813-6.574    C248.31,183.36,250.52,185.979,250.52,189.693z M240.807,189.898c0,2.674,1.449,5.068,3.993,5.068    c2.563,0,4.012-2.357,4.012-5.199c0-2.489-1.301-5.088-3.993-5.088C242.145,184.68,240.807,187.149,240.807,189.898z"/>			<path d="M253.727,196.081v-12.516h1.764l4.011,6.333c0.929,1.467,1.653,2.785,2.248,4.066l0.036-0.02    c-0.147-1.67-0.186-3.193-0.186-5.144v-5.236h1.523v12.516h-1.635l-3.974-6.351c-0.874-1.393-1.708-2.822-2.34-4.178    l-0.056,0.018c0.093,1.579,0.13,3.083,0.13,5.162v5.349H253.727z"/>			<path d="M267.054,196.081v-12.516h1.764l4.012,6.333c0.928,1.467,1.652,2.785,2.247,4.066l0.036-0.02    c-0.147-1.67-0.185-3.193-0.185-5.144v-5.236h1.522v12.516h-1.635l-3.974-6.351c-0.873-1.393-1.708-2.822-2.339-4.178    l-0.056,0.018c0.092,1.579,0.13,3.083,0.13,5.162v5.349H267.054z"/>			<path d="M286.861,190.213h-4.865v4.513h5.423v1.355h-7.037v-12.516h6.759v1.355h-5.145v3.956h4.865V190.213z"/>			<path d="M299.374,195.673c-0.594,0.297-1.782,0.594-3.305,0.594c-3.528,0-6.184-2.228-6.184-6.332    c0-3.918,2.655-6.574,6.536-6.574c1.561,0,2.544,0.335,2.972,0.558l-0.391,1.318c-0.612-0.297-1.485-0.52-2.525-0.52    c-2.935,0-4.884,1.875-4.884,5.162c0,3.064,1.764,5.032,4.81,5.032c0.983,0,1.987-0.203,2.638-0.52L299.374,195.673z"/>			<path d="M305.405,184.939h-3.807v-1.374h9.266v1.374h-3.825v11.142h-1.634V184.939z"/>			<path d="M311.808,195.116c0-0.688,0.464-1.171,1.114-1.171c0.649,0,1.096,0.483,1.096,1.171c0,0.669-0.427,1.17-1.114,1.17    C312.254,196.286,311.808,195.785,311.808,195.116z"/>			<path d="M322.258,183.732c0.984-0.148,2.154-0.26,3.436-0.26c2.321,0,3.975,0.539,5.069,1.56c1.114,1.021,1.764,2.47,1.764,4.494    c0,2.042-0.631,3.714-1.8,4.865c-1.171,1.17-3.102,1.802-5.534,1.802c-1.152,0-2.118-0.057-2.935-0.149V183.732z M323.873,194.8    c0.409,0.075,1.003,0.093,1.634,0.093c3.454,0,5.331-1.931,5.331-5.311c0.019-2.953-1.654-4.828-5.07-4.828    c-0.836,0-1.467,0.074-1.895,0.167V194.8z"/>			<path d="M342.215,190.213h-4.865v4.513h5.423v1.355h-7.038v-12.516h6.759v1.355h-5.144v3.956h4.865V190.213z"/>			<path d="M345.98,183.565h6.74v1.355h-5.125v4.159h4.735v1.338h-4.735v5.663h-1.615V183.565z"/>			<path d="M357.75,183.565v12.516h-1.615v-12.516H357.75z"/>			<path d="M361.685,196.081v-12.516h1.765l4.011,6.333c0.928,1.467,1.652,2.785,2.247,4.066l0.037-0.02    c-0.148-1.67-0.186-3.193-0.186-5.144v-5.236h1.522v12.516h-1.634l-3.974-6.351c-0.874-1.393-1.709-2.822-2.34-4.178    l-0.056,0.018c0.092,1.579,0.13,3.083,0.13,5.162v5.349H361.685z"/>			<path d="M381.493,190.213h-4.866v4.513h5.423v1.355h-7.037v-12.516h6.759v1.355h-5.145v3.956h4.866V190.213z"/>			<path d="M384.738,195.116c0-0.688,0.464-1.171,1.115-1.171c0.648,0,1.095,0.483,1.095,1.171c0,0.669-0.427,1.17-1.114,1.17    C385.185,196.286,384.738,195.785,384.738,195.116z"/>			<path d="M397.213,192.145l-1.3,3.937h-1.672l4.253-12.516h1.95l4.271,12.516h-1.727l-1.338-3.937H397.213z M401.316,190.882    l-1.225-3.604c-0.278-0.816-0.466-1.559-0.65-2.283h-0.038c-0.186,0.742-0.389,1.505-0.631,2.266l-1.225,3.621H401.316z"/>			<path d="M407.663,183.565h1.615v11.16h5.349v1.355h-6.964V183.565z"/>			<path d="M419.153,183.565v12.516h-1.615v-12.516H419.153z"/>			<path d="M432.614,195.524c-0.725,0.261-2.154,0.687-3.844,0.687c-1.894,0-3.454-0.482-4.679-1.652    c-1.077-1.039-1.746-2.711-1.746-4.66c0.018-3.733,2.58-6.463,6.778-6.463c1.447,0,2.58,0.315,3.119,0.576l-0.39,1.317    c-0.669-0.297-1.505-0.537-2.768-0.537c-3.045,0-5.032,1.894-5.032,5.031c0,3.176,1.913,5.052,4.828,5.052    c1.059,0,1.783-0.149,2.153-0.335v-3.732h-2.544v-1.3h4.123V195.524z"/>			<path d="M436.194,196.081v-12.516h1.764l4.012,6.333c0.928,1.467,1.652,2.785,2.247,4.066l0.036-0.02    c-0.147-1.67-0.186-3.193-0.186-5.144v-5.236h1.523v12.516h-1.635l-3.974-6.351c-0.873-1.393-1.708-2.822-2.34-4.178    l-0.055,0.018c0.092,1.579,0.129,3.083,0.129,5.162v5.349H436.194z"/>		</g>	</g></g><g>	<defs>		<path id="SVGID_1_" d="M91.546,8.201L16.055,51.786C8.999,55.858,4.653,63.387,4.653,71.535v87.168   c0,8.148,4.346,15.676,11.402,19.751l75.492,43.586c7.057,4.071,15.75,4.071,22.805,0l75.491-43.586   c7.054-4.075,11.401-11.603,11.401-19.751V71.535c0-8.148-4.348-15.677-11.401-19.75L114.351,8.201   C107.296,4.125,98.604,4.125,91.546,8.201"/>	</defs>	<clipPath id="SVGID_2_">		<use xlink:href="#SVGID_1_"/>	</clipPath>	<g clip-path="url(#SVGID_2_)">		<path fill="#FFFFFF" d="M33.963,33.489v71.083c2.148-2.478,4.241-4.437,6.285-5.88c2.042-1.444,4.3-2.527,6.776-3.25   c2.478-0.722,5.137-1.084,7.986-1.084c4.293,0,8.1,0.909,11.42,2.725c3.323,1.816,5.933,4.456,7.83,7.923   c1.197,2.021,2.002,4.282,2.413,6.778c0.415,2.497,0.62,5.375,0.62,8.635v32.374c0,3.38-0.772,5.943-2.322,7.675   c-1.546,1.732-3.6,2.601-6.157,2.601c-5.571,0-8.357-3.425-8.357-10.275v-28.538c0-5.403-0.803-9.563-2.415-12.471   c-1.608-2.91-4.664-4.365-9.162-4.365c-3.011,0-5.724,0.857-8.141,2.568c-2.413,1.714-4.216,4.055-5.414,7.027   c-0.907,2.514-1.364,6.995-1.364,13.43v22.348c0,3.342-0.752,5.892-2.259,7.643c-1.505,1.754-3.6,2.633-6.281,2.633   c-5.572,0-8.357-3.425-8.357-10.275V33.489c0-3.424,0.731,5.698,2.198,3.986c1.465-1.714,3.519-2.57,6.159-2.57   c2.681,0,4.776,0.866,6.281,2.599C33.211,39.237,33.963,30.106,33.963,33.489z"/>		<path fill="#FFFFFF" d="M92.644,95.844h4.025V90.77c0-5.284,0.67-9.482,2.011-12.597s3.611-5.384,6.808-6.809   c3.201-1.425,7.585-2.134,13.154-2.134c9.864,0,14.796,2.414,14.796,7.242c0,1.566-0.518,2.909-1.549,4.022   c-1.031,1.115-2.249,1.673-3.651,1.673c-0.662,0-1.795-0.125-3.408-0.373c-1.608-0.248-2.967-0.373-4.082-0.373   c-3.056,0-5.014,0.898-5.881,2.693c-0.864,1.795-1.3,4.364-1.3,7.707v4.023h4.148c6.436,0,9.655,1.939,9.655,5.819   c0,2.765-0.858,4.52-2.568,5.261c-1.714,0.743-4.076,1.114-7.086,1.114h-4.148v128.764c0,3.343-0.795,5.889-2.384,7.644   c-1.586,1.752-3.64,2.632-6.157,2.632c-2.394,0-4.384-0.88-5.973-2.632c-1.589-1.755-2.384-4.301-2.384-7.644V108.038h-4.643   c-2.516,0-4.457-0.566-5.816-1.703c-1.364-1.134-2.044-2.609-2.044-4.426C84.165,97.867,86.991,95.844,92.644,95.844z"/>		<path fill="#FFFFFF" d="M190.632,140.969c0,4.662-1.138,8.656-3.406,11.978c-2.272,3.32-5.622,5.84-10.061,7.553   c-4.433,1.712-9.828,2.568-16.185,2.568c-6.066,0-11.262-0.931-15.597-2.787c-4.333-1.855-7.531-4.177-9.594-6.963   c-2.063-2.786-3.096-5.581-3.096-8.388c0-1.857,0.663-3.446,1.981-4.766c1.323-1.323,2.993-1.983,5.014-1.983   c1.775,0,3.136,0.436,4.085,1.3c0.948,0.87,1.857,2.087,2.725,3.655c1.731,3.01,3.808,5.259,6.221,6.747   c2.413,1.484,5.705,2.23,9.871,2.23c3.386,0,6.159-0.757,8.325-2.262c2.169-1.507,3.25-3.227,3.25-5.168   c0-2.972-1.125-5.137-3.373-6.502c-2.248-1.362-5.955-2.658-11.111-3.897c-5.816-1.444-10.553-2.961-14.208-4.551   c-3.649-1.588-6.57-3.682-8.756-6.283c-2.187-2.598-3.278-5.796-3.278-9.593c0-3.385,1.009-6.581,3.031-9.594   c2.025-3.013,5.004-5.417,8.947-7.211c3.939-1.795,8.696-2.694,14.265-2.694c4.377,0,8.307,0.455,11.796,1.362   c3.484,0.909,6.391,2.126,8.725,3.654c2.331,1.525,4.108,3.218,5.324,5.076c1.218,1.856,1.827,3.672,1.827,5.446   c0,1.94-0.649,3.529-1.951,4.767c-1.302,1.237-3.145,1.857-5.54,1.857c-1.735,0-3.211-0.496-4.428-1.487   c-1.216-0.99-2.608-2.475-4.178-4.458c-1.279-1.648-2.784-2.969-4.518-3.958c-1.733-0.992-4.085-1.487-7.058-1.487   c-3.052,0-5.589,0.649-7.614,1.951c-2.02,1.3-3.029,2.919-3.029,4.859c0,1.774,0.742,3.228,2.228,4.362   c1.486,1.135,3.486,2.074,6.003,2.818c2.516,0.742,5.984,1.65,10.398,2.723c5.241,1.278,9.521,2.806,12.842,4.58   c3.325,1.775,5.842,3.87,7.553,6.283C189.776,135.121,190.632,137.875,190.632,140.969z"/>	</g></g><script xmlns=""/></svg>